:FULLY-SPECIFIED
:FORCE-ALL-JOINTS-BE-3DOF
:DEGREES
17
root 7.80131 15.7513 -34.031 7.93932 -3.37389 -6.57345
lfemur -47.4011 9.37477 -12.4349
ltibia 41.9639 -0 0
lfoot -4.73335 7.36288 -0.0224851
ltoes -8.89615 0 0
rfemur 14.0634 5.32107 31.0257
rtibia 1.83301 -0 0
rfoot 1.67295 2.98231 -0.415731
rtoes -15.9181 0 0
lowerback -6.89064 1.114 2.89959
upperback -1.33214 1.16204 3.48874
thorax 2.43818 0.595318 2.09346
lowerneck -19.5356 -5.09657 -13.125
upperneck 13.8682 -6.41856 16.4941
head 8.53458 -2.17062 7.00704
lclavicle -1.23166e-14 -2.23702e-14 -6.61567e-30
lhumerus -42.7589 -3.64737 89.2646
lradius 24.8415 -0 0
lwrist 3.60514 0 0
lhand -1.34806 -19.5012 0.249076
lfingers 7.12502 -0 0
lthumb 24.2666 8.63037 0.134522
rclavicle -1.23166e-14 -2.23702e-14 -6.61567e-30
rhumerus -42.1354 19.8281 -89.2157
rradius 59.2375 -0 0
rwrist -28.7754 0 0
rhand -32.2059 -31.7624 -0.071937
rfingers 7.12502 -0 0
rthumb -5.44745 -61.6695 -0.0697171
18
root 7.83821 15.7445 -33.7747 7.96298 -3.66317 -6.66226
lfemur -47.5108 9.46293 -12.3325
ltibia 41.7409 -0 0
lfoot -4.28104 7.3248 -0.0201981
ltoes -8.67171 0 0
rfemur 15.0634 5.34535 30.9642
rtibia 1.0975 -0 0
rfoot 1.61428 3.02125 -0.417
rtoes -16.7438 0 0
lowerback -7.01703 1.14726 2.95076
upperback -1.32307 1.19407 3.5321
thorax 2.51708 0.6116 2.11439
lowerneck -19.6061 -5.08359 -13.1017
upperneck 13.9261 -6.39397 16.4335
head 8.55901 -2.15991 6.98661
lclavicle -1.33937e-14 -2.42481e-14 -6.55215e-30
lhumerus -43.0065 -3.75118 89.4248
lradius 24.7183 -0 0
lwrist 3.39041 0 0
lhand -0.767401 -19.337 0.241891
lfingers 7.12502 -0 0
lthumb 24.8235 8.7249 0.130356
rclavicle -1.33937e-14 -2.42481e-14 -6.55215e-30
rhumerus -42.3401 19.9002 -89.4992
rradius 59.2488 -0 0
rwrist -28.7301 0 0
rhand -32.1394 -32.0209 -0.0713672
rfingers 7.12502 -0 0
rthumb -5.38322 -61.9296 -0.0691709
19
root 7.87552 15.7384 -33.5169 7.98352 -3.94978 -6.74155
lfemur -47.591 9.54015 -12.2433
ltibia 41.5103 -0 0
lfoot -3.84799 7.28924 -0.0178255
ltoes -8.44542 0 0
rfemur 16.0084 5.37054 30.8919
rtibia 0.429611 -0 0
rfoot 1.54092 3.04612 -0.415663
rtoes -17.5467 0 0
lowerback -7.13911 1.17779 2.99489
upperback -1.31435 1.22312 3.57369
thorax 2.5934 0.62632 2.13715
lowerneck -19.6774 -5.06995 -13.0776
upperneck 13.9879 -6.36846 16.3703
head 8.58466 -2.14894 6.9654
lclavicle -1.44534e-14 -2.60622e-14 -6.44892e-30
lhumerus -43.2354 -3.86037 89.5812
lradius 24.5995 -0 0
lwrist 3.17903 0 0
lhand -0.207204 -19.1797 0.233323
lfingers 7.12502 -0 0
lthumb 25.3607 8.81534 0.12545
rclavicle -1.44534e-14 -2.60622e-14 -6.44892e-30
rhumerus -42.5423 19.9645 -89.7767
rradius 59.2433 -0 0
rwrist -28.6797 0 0
rhand -32.073 -32.2663 -0.070363
rfingers 7.12502 -0 0
rthumb -5.31917 -62.1766 -0.0682033
20
root 7.91302 15.733 -33.2593 8.00096 -4.23333 -6.81155
lfemur -47.6428 9.60666 -12.1671
ltibia 41.2728 -0 0
lfoot -3.43417 7.25616 -0.0154091
ltoes -8.21776 0 0
rfemur 16.899 5.39676 30.8093
rtibia -0.172289 0 0
rfoot 1.4536 3.05744 -0.411845
rtoes -18.3265 0 0
lowerback -7.25685 1.20561 3.03222
upperback -1.30598 1.24927 3.61353
thorax 2.6671 0.639514 2.16163
lowerneck -19.7495 -5.05568 -13.0528
upperneck 14.0532 -6.3421 16.3047
head 8.61145 -2.13773 6.94348
lclavicle -1.54947e-14 -2.78119e-14 -6.30901e-30
lhumerus -43.446 -3.97459 89.7338
lradius 24.4854 -0 0
lwrist 2.97124 0 0
lhand 0.332387 -19.029 0.22356
lfingers 7.12502 -0 0
lthumb 25.8783 8.9017 0.11991
rclavicle -1.54947e-14 -2.78119e-14 -6.30901e-30
rhumerus -42.7414 20.0213 -90.0478
rradius 59.2217 -0 0
rwrist -28.6246 0 0
rhand -32.007 -32.4987 -0.0689558
rfingers 7.12502 -0 0
rthumb -5.25539 -62.4106 -0.0668452
21
root 7.95044 15.7281 -33.0033 8.01534 -4.51343 -6.87248
lfemur -47.6673 9.66272 -12.1032
ltibia 41.0291 -0 0
lfoot -3.03955 7.22551 -0.0129877
ltoes -7.9892 0 0
rfemur 17.7359 5.42408 30.7172
rtibia -0.709818 0 0
rfoot 1.35306 3.05576 -0.405682
rtoes -19.0825 0 0
lowerback -7.37021 1.23077 3.06295
upperback -1.29796 1.27259 3.6516
thorax 2.73815 0.651219 2.18772
lowerneck -19.822 -5.04084 -13.0274
upperneck 14.1217 -6.31498 16.237
head 8.63927 -2.12631 6.92091
lclavicle -1.65163e-14 -2.94967e-14 -6.13545e-30
lhumerus -43.6388 -4.0935 89.8824
lradius 24.3757 -0 0
lwrist 2.76726 0 0
lhand 0.85123 -18.8852 0.212783
lfingers 7.12502 -0 0
lthumb 26.376 8.98397 0.113838
rclavicle -1.65163e-14 -2.94967e-14 -6.13545e-30
rhumerus -42.9374 20.0707 -90.3123
rradius 59.1848 -0 0
rwrist -28.5651 0 0
rhand -31.9413 -32.7182 -0.067178
rfingers 7.12502 -0 0
rthumb -5.19201 -62.6317 -0.0651273
22
root 7.98756 15.7238 -32.7504 8.0267 -4.78969 -6.92459
lfemur -47.6656 9.70859 -12.0512
ltibia 40.78 -0 0
lfoot -2.66409 7.19725 -0.0105967
ltoes -7.76022 0 0
rfemur 18.5196 5.45255 30.6159
rtibia -1.1846 0 0
rfoot 1.24003 3.0416 -0.397314
rtoes -19.8144 0 0
lowerback -7.47917 1.25331 3.08731
upperback -1.29031 1.29314 3.68791
thorax 2.80654 0.66147 2.21528
lowerneck -19.895 -5.02548 -13.0016
upperneck 14.1933 -6.28716 16.1673
head 8.66804 -2.11471 6.89778
lclavicle -1.75172e-14 -3.11161e-14 -5.9313e-30
lhumerus -43.8141 -4.21674 90.0269
lradius 24.2706 -0 0
lwrist 2.56733 0 0
lhand 1.34918 -18.7481 0.201167
lfingers 7.12502 -0 0
lthumb 26.8536 9.06217 0.107332
rclavicle -1.75172e-14 -3.11161e-14 -5.9313e-30
rhumerus -43.1298 20.1131 -90.5699
rradius 59.1331 -0 0
rwrist -28.5014 0 0
rhand -31.8762 -32.9249 -0.0650619
rfingers 7.12502 -0 0
rthumb -5.12911 -62.8399 -0.0630813
23
root 8.02413 15.7199 -32.5021 8.03508 -5.06173 -6.9681
lfemur -47.6389 9.74457 -12.0108
ltibia 40.5262 -0 0
lfoot -2.30776 7.17134 -0.00826884
ltoes -7.53129 0 0
rfemur 19.2507 5.48214 30.5062
rtibia -1.59825 0 0
rfoot 1.11526 3.01549 -0.38689
rtoes -20.5216 0 0
lowerback -7.58369 1.27327 3.10552
upperback -1.28301 1.31101 3.72245
thorax 2.87223 0.670305 2.2442
lowerneck -19.9682 -5.00964 -12.9753
upperneck 14.2676 -6.25871 16.0958
head 8.69765 -2.10296 6.87415
lclavicle -1.84961e-14 -3.26694e-14 -5.69964e-30
lhumerus -43.9723 -4.34396 90.1671
lradius 24.1701 -0 0
lwrist 2.37168 0 0
lhand 1.82611 -18.6177 0.188882
lfingers 7.12502 -0 0
lthumb 27.3112 9.13631 0.100485
rclavicle -1.84961e-14 -3.26694e-14 -5.69964e-30
rhumerus -43.3183 20.1486 -90.8203
rradius 59.0675 -0 0
rwrist -28.4338 0 0
rhand -31.8117 -33.1189 -0.0626404
rfingers 7.12502 -0 0
rthumb -5.06682 -63.0355 -0.0607387
24
root 8.0599 15.7165 -32.2599 8.04053 -5.32916 -7.00325
lfemur -47.5881 9.77097 -11.9816
ltibia 40.2684 -0 0
lfoot -1.97052 7.14774 -0.00603361
ltoes -7.30289 0 0
rfemur 19.9299 5.51282 30.3885
rtibia -1.9524 0 0
rfoot 0.979467 2.97795 -0.374562
rtoes -21.2038 0 0
lowerback -7.68374 1.2907 3.1178
upperback -1.27608 1.32626 3.75523
thorax 2.93519 0.677761 2.27437
lowerneck -20.0414 -4.99338 -12.9487
upperneck 14.3443 -6.2297 16.0229
head 8.728 -2.09108 6.85009
lclavicle -1.94519e-14 -3.41561e-14 -5.44354e-30
lhumerus -44.1137 -4.47479 90.3029
lradius 24.0742 -0 0
lwrist 2.18055 0 0
lhand 2.28187 -18.4942 0.176088
lfingers 7.12502 -0 0
lthumb 27.7484 9.20639 0.0933883
rclavicle -1.94519e-14 -3.41561e-14 -5.44354e-30
rhumerus -43.5026 20.1775 -91.0632
rradius 58.9887 -0 0
rwrist -28.3626 0 0
rhand -31.7479 -33.3004 -0.0599461
rfingers 7.12502 -0 0
rthumb -5.00523 -63.2184 -0.0581313
25
root 8.09464 15.7134 -32.0253 8.0431 -5.59158 -7.03028
lfemur -47.5144 9.78811 -11.9631
ltibia 40.0073 -0 0
lfoot -1.65234 7.1264 -0.00391788
ltoes -7.0755 0 0
rfemur 20.5576 5.54452 30.2634
rtibia -2.24866 0 0
rfoot 0.833388 2.92953 -0.360486
rtoes -21.8604 0 0
lowerback -7.77928 1.30565 3.12437
upperback -1.26952 1.33896 3.78624
thorax 2.9954 0.683877 2.30567
lowerneck -20.1145 -4.97675 -12.9217
upperneck 14.4232 -6.20021 15.9487
head 8.75901 -2.07911 6.82567
lclavicle -2.03835e-14 -3.55757e-14 -5.1661e-30
lhumerus -44.2389 -4.60886 90.4341
lradius 23.983 -0 0
lwrist 1.99417 0 0
lhand 2.71633 -18.3773 0.162939
lfingers 7.12502 -0 0
lthumb 28.1653 9.27243 0.0861267
rclavicle -2.03835e-14 -3.55757e-14 -5.1661e-30
rhumerus -43.6826 20.2 -91.2984
rradius 58.8972 -0 0
rwrist -28.2882 0 0
rhand -31.6849 -33.4693 -0.0570119
rfingers 7.12502 -0 0
rthumb -4.94445 -63.3889 -0.0552908
26
root 8.1281 15.7107 -31.7997 8.04284 -5.84861 -7.04941
lfemur -47.4189 9.79632 -11.9551
ltibia 39.7436 -0 0
lfoot -1.35317 7.10727 -0.00194567
ltoes -6.84958 0 0
rfemur 21.1346 5.57713 30.1315
rtibia -2.48865 0 0
rfoot 0.677755 2.87075 -0.34482
rtoes -22.4909 0 0
lowerback -7.87028 1.31817 3.12545
upperback -1.26333 1.3492 3.81549
thorax 3.05283 0.688691 2.33797
lowerneck -20.1874 -4.9598 -12.8946
upperneck 14.504 -6.17032 15.8734
head 8.79057 -2.06708 6.80097
lclavicle -2.12898e-14 -3.69277e-14 -4.87038e-30
lhumerus -44.348 -4.7458 90.5607
lradius 23.8964 -0 0
lwrist 1.81277 0 0
lhand 3.12934 -18.2673 0.149584
lfingers 7.12502 -0 0
lthumb 28.5616 9.33445 0.0787819
rclavicle -2.12898e-14 -3.69277e-14 -4.87038e-30
rhumerus -43.8578 20.2163 -91.5255
rradius 58.7939 -0 0
rwrist -28.2108 0 0
rhand -31.6229 -33.626 -0.0538705
rfingers 7.12502 -0 0
rthumb -4.88459 -63.5471 -0.0522488
27
root 8.16004 15.7082 -31.5847 8.03981 -6.09984 -7.0609
lfemur -47.3027 9.79596 -11.957
ltibia 39.4782 -0 0
lfoot -1.073 7.09032 -0.000138333
ltoes -6.62561 0 0
rfemur 21.6615 5.61051 29.9933
rtibia -2.67401 0 0
rfoot 0.513298 2.80213 -0.327723
rtoes -23.0949 0 0
lowerback -7.9567 1.3283 3.12125
upperback -1.25751 1.35704 3.84297
thorax 3.10745 0.692241 2.37117
lowerneck -20.2598 -4.94257 -12.8673
upperneck 14.5865 -6.1401 15.7974
head 8.82259 -2.05501 6.77604
lclavicle -2.21695e-14 -3.82113e-14 -4.55945e-30
lhumerus -44.4415 -4.88524 90.6824
lradius 23.8145 -0 0
lwrist 1.63659 0 0
lhand 3.52076 -18.1639 0.136163
lfingers 7.12502 -0 0
lthumb 28.9372 9.39245 0.0714314
rclavicle -2.21695e-14 -3.82113e-14 -4.55945e-30
rhumerus -44.0281 20.2267 -91.7444
rradius 58.6795 -0 0
rwrist -28.1308 0 0
rhand -31.562 -33.7704 -0.0505544
rfingers 7.12502 -0 0
rthumb -4.82576 -63.6929 -0.0490368
28
root 8.19021 15.706 -31.3818 8.03408 -6.34488 -7.06497
lfemur -47.1667 9.78738 -11.9686
ltibia 39.2115 -0 0
lfoot -0.811777 7.07551 0.0014854
ltoes -6.40407 0 0
rfemur 22.1387 5.64451 29.8495
rtibia -2.80635 0 0
rfoot 0.340749 2.72422 -0.309354
rtoes -23.6719 0 0
lowerback -8.0385 1.33611 3.11199
upperback -1.25206 1.36255 3.86868
thorax 3.15923 0.694568 2.40514
lowerneck -20.3316 -4.92513 -12.8399
upperneck 14.6703 -6.10963 15.7207
head 8.85497 -2.04294 6.75096
lclavicle -2.30216e-14 -3.94262e-14 -4.23632e-30
lhumerus -44.5198 -5.02678 90.7991
lradius 23.7373 -0 0
lwrist 1.46586 0 0
lhand 3.89047 -18.0673 0.122809
lfingers 7.12502 -0 0
lthumb 29.292 9.44645 0.0641483
rclavicle -2.30216e-14 -3.94262e-14 -4.23632e-30
rhumerus -44.193 20.2314 -91.9548
rradius 58.5546 -0 0
rwrist -28.0483 0 0
rhand -31.5022 -33.9026 -0.0470956
rfingers 7.12502 -0 0
rthumb -4.76805 -63.8266 -0.0456858
29
root 8.21838 15.7039 -31.1924 8.0257 -6.58333 -7.06187
lfemur -47.0122 9.77094 -11.9895
ltibia 38.9445 -0 0
lfoot -0.569472 7.06278 0.00290931
ltoes -6.18542 0 0
rfemur 22.567 5.67895 29.7004
rtibia -2.88728 0 0
rfoot 0.160839 2.63753 -0.28987
rtoes -24.2214 0 0
lowerback -8.11565 1.34166 3.09789
upperback -1.247 1.36581 3.89262
thorax 3.20814 0.695711 2.43977
lowerneck -20.4027 -4.90751 -12.8126
upperneck 14.7553 -6.07899 15.6436
head 8.88762 -2.03089 6.7258
lclavicle -2.38448e-14 -4.05718e-14 -3.90401e-30
lhumerus -44.5831 -5.17004 90.9106
lradius 23.6648 -0 0
lwrist 1.30082 0 0
lhand 4.23833 -17.9774 0.109649
lfingers 7.12502 -0 0
lthumb 29.6258 9.49646 0.0570015
rclavicle -2.38448e-14 -4.05718e-14 -3.90401e-30
rhumerus -44.3525 20.2307 -92.1563
rradius 58.42 -0 0
rwrist -27.9638 0 0
rhand -31.4437 -34.0229 -0.0435259
rfingers 7.12502 -0 0
rthumb -4.71157 -63.9482 -0.0422266
